<svg id="svg" version="1.1" xmlns="http://www.w3.org/2000/svg" xmlns:xlink="http://www.w3.org/1999/xlink" width="400" height="400" viewBox="0, 0, 400,400"><g id="svgg"><path id="path0" d="M0.000 200.000 L 0.000 400.000 200.000 400.000 L 400.000 400.000 400.000 200.000 L 400.000 0.000 200.000 0.000 L 0.000 0.000 0.000 200.000 M260.157 90.233 C 260.291 90.581,260.400 111.705,260.400 137.176 L 260.400 183.487 269.166 191.533 C 278.349 199.962,278.787 200.527,278.202 203.189 C 277.651 205.700,274.238 207.198,271.908 205.951 C 271.446 205.703,268.713 203.323,265.834 200.662 L 260.600 195.822 260.397 253.011 C 260.285 284.465,260.150 310.246,260.097 310.301 C 260.043 310.357,233.045 310.357,200.100 310.301 L 140.200 310.200 140.099 248.467 C 140.040 212.596,139.848 186.790,139.641 186.867 C 139.445 186.940,135.124 190.457,130.037 194.683 C 120.180 202.872,119.197 203.440,116.919 202.262 C 113.341 200.411,113.484 196.583,117.243 193.611 C 118.209 192.846,123.725 188.290,129.500 183.484 L 140.000 174.747 140.000 132.440 C 140.000 109.171,140.120 90.013,140.267 89.867 C 140.924 89.209,259.904 89.572,260.157 90.233 M148.000 132.400 C 148.000 151.760,148.144 167.600,148.320 167.600 C 148.497 167.600,149.892 166.549,151.420 165.264 C 159.323 158.623,193.010 130.669,193.933 129.986 C 195.660 128.710,199.871 128.549,201.484 129.699 C 202.179 130.194,213.740 140.680,227.175 153.000 C 240.609 165.320,251.780 175.460,252.000 175.533 C 252.265 175.622,252.400 162.393,252.400 136.433 L 252.400 97.200 200.200 97.200 L 148.000 97.200 148.000 132.400 M183.983 149.836 C 176.402 156.132,165.205 165.440,159.100 170.521 L 148.000 179.759 148.000 241.080 L 148.000 302.400 200.200 302.400 L 252.400 302.400 252.394 245.500 C 252.391 214.205,252.256 188.411,252.094 188.180 C 251.932 187.949,242.710 179.407,231.600 169.199 C 220.490 158.991,208.457 147.930,204.861 144.619 C 201.264 141.309,198.197 138.552,198.044 138.494 C 197.890 138.436,191.563 143.540,183.983 149.836 " stroke="none" fill="#fbfbfb" fill-rule="evenodd"></path><path id="path1" d="M141.068 90.665 C 140.921 90.813,140.800 109.863,140.800 132.999 L 140.800 175.065 128.100 185.632 L 115.400 196.200 115.275 197.941 C 115.086 200.568,116.989 202.262,119.553 201.749 C 120.258 201.608,124.413 198.427,130.249 193.559 C 135.497 189.182,140.018 185.600,140.294 185.600 C 140.696 185.600,140.818 198.100,140.899 247.500 L 141.000 309.400 200.200 309.400 L 259.400 309.400 259.501 252.100 C 259.582 206.657,259.706 194.802,260.101 194.811 C 260.376 194.817,261.770 195.906,263.200 197.233 C 273.160 206.470,274.289 207.073,276.564 204.369 C 278.804 201.708,278.093 200.579,269.005 192.365 C 267.687 191.174,265.527 189.181,264.205 187.936 C 262.882 186.691,261.350 185.312,260.800 184.872 L 259.800 184.071 259.600 137.335 L 259.400 90.600 200.368 90.499 C 167.900 90.443,141.215 90.518,141.068 90.665 M252.800 136.800 C 252.800 164.706,252.672 176.800,252.376 176.800 C 252.143 176.800,250.930 175.855,249.681 174.700 C 248.432 173.545,246.327 171.597,245.005 170.372 C 243.682 169.147,241.522 167.167,240.205 165.972 C 238.887 164.777,236.727 162.797,235.405 161.572 C 234.082 160.347,231.922 158.367,230.605 157.172 C 229.287 155.977,227.127 153.997,225.805 152.772 C 224.482 151.547,222.322 149.567,221.005 148.372 C 219.687 147.177,217.527 145.197,216.205 143.972 C 214.882 142.747,212.722 140.767,211.405 139.572 C 210.087 138.377,207.927 136.386,206.605 135.147 C 200.975 129.872,200.560 129.600,198.149 129.600 C 195.204 129.600,197.341 128.000,171.184 149.786 C 158.375 160.454,147.739 169.086,147.548 168.968 C 147.355 168.849,147.200 152.724,147.200 132.776 L 147.200 96.800 200.000 96.800 L 252.800 96.800 252.800 136.800 M199.137 138.432 C 199.722 138.890,201.100 140.106,202.200 141.135 C 203.300 142.163,206.450 145.069,209.200 147.592 C 211.950 150.115,215.464 153.354,217.010 154.790 C 219.959 157.530,221.308 158.767,228.799 165.603 C 231.329 167.911,234.569 170.895,235.999 172.233 C 238.377 174.458,244.803 180.371,250.519 185.595 L 252.800 187.680 252.800 245.440 L 252.800 303.200 200.000 303.200 L 147.200 303.200 147.200 241.371 C 147.200 192.431,147.304 179.443,147.700 179.064 C 147.975 178.800,151.350 175.972,155.200 172.779 C 181.702 150.800,188.274 145.336,192.562 141.718 C 197.975 137.150,197.684 137.295,199.137 138.432 " stroke="none" fill="#040404" fill-rule="evenodd"></path><path id="path2" d="M140.668 90.265 C 140.521 90.413,140.400 109.459,140.400 132.590 C 140.400 165.644,140.293 174.778,139.900 175.257 C 139.625 175.592,137.962 177.021,136.204 178.433 C 134.446 179.845,132.777 181.217,132.494 181.481 C 132.211 181.746,131.130 182.646,130.090 183.481 C 129.051 184.317,128.110 185.092,128.000 185.205 C 127.890 185.319,126.810 186.216,125.600 187.200 C 124.390 188.184,123.310 189.084,123.200 189.200 C 123.090 189.316,122.010 190.215,120.800 191.198 C 119.590 192.181,117.790 193.764,116.800 194.715 C 115.810 195.666,120.760 191.669,127.800 185.834 L 140.600 175.225 140.800 132.913 L 141.000 90.600 200.200 90.600 L 259.400 90.600 259.600 137.335 L 259.800 184.071 260.800 184.872 C 261.350 185.312,262.882 186.691,264.205 187.936 C 265.527 189.181,267.687 191.174,269.005 192.365 C 270.322 193.556,272.820 195.896,274.556 197.565 C 276.292 199.234,277.508 200.209,277.258 199.731 C 277.009 199.253,276.380 198.528,275.860 198.119 C 274.774 197.264,267.199 190.311,262.912 186.234 L 260.003 183.468 259.902 136.834 L 259.800 90.200 200.368 90.099 C 167.680 90.043,140.815 90.118,140.668 90.265 M147.298 132.676 C 147.243 153.077,147.353 168.847,147.551 168.970 C 147.877 169.171,171.760 149.593,174.000 147.289 C 175.349 145.902,172.961 147.840,159.860 158.766 C 153.733 163.875,148.469 168.152,148.162 168.270 C 147.688 168.452,147.589 163.085,147.500 132.542 L 147.396 96.600 147.298 132.676 M199.719 129.605 C 200.838 129.941,202.091 130.952,206.605 135.159 C 207.927 136.391,210.087 138.377,211.405 139.572 C 212.722 140.767,214.882 142.747,216.205 143.972 C 217.527 145.197,219.687 147.177,221.005 148.372 C 222.322 149.567,224.482 151.547,225.805 152.772 C 227.127 153.997,229.287 155.977,230.605 157.172 C 231.922 158.367,234.082 160.347,235.405 161.572 C 236.727 162.797,238.887 164.777,240.205 165.972 C 241.522 167.167,243.682 169.147,245.005 170.372 C 246.327 171.597,248.432 173.545,249.681 174.700 C 250.930 175.855,252.188 176.795,252.476 176.788 C 252.764 176.781,252.640 176.571,252.200 176.320 C 251.760 176.069,251.130 175.580,250.799 175.232 C 250.468 174.884,248.308 172.892,245.999 170.805 C 243.690 168.717,241.530 166.737,241.199 166.405 C 240.868 166.072,238.708 164.092,236.399 162.005 C 234.090 159.917,231.930 157.937,231.599 157.605 C 231.268 157.272,229.108 155.292,226.799 153.205 C 224.490 151.117,222.330 149.137,221.999 148.805 C 221.668 148.472,219.508 146.492,217.199 144.405 C 214.890 142.317,212.730 140.337,212.399 140.005 C 212.068 139.672,209.908 137.692,207.599 135.605 C 205.290 133.517,203.130 131.527,202.800 131.182 C 201.717 130.050,200.236 129.199,199.411 129.234 C 198.801 129.260,198.878 129.352,199.719 129.605 M192.394 131.689 C 190.967 132.838,189.440 134.110,189.000 134.516 C 188.560 134.922,187.441 135.826,186.512 136.527 C 185.584 137.227,184.819 137.966,184.812 138.170 C 184.806 138.373,185.205 138.180,185.700 137.740 C 187.615 136.038,193.849 130.920,194.789 130.276 C 195.333 129.904,195.600 129.600,195.383 129.600 C 195.166 129.600,193.821 130.540,192.394 131.689 M195.200 139.635 L 193.000 141.660 195.337 139.830 C 198.115 137.654,197.853 137.686,199.604 139.303 C 200.375 140.017,203.075 142.490,205.604 144.800 C 208.132 147.110,210.290 149.090,210.400 149.200 C 210.510 149.310,212.670 151.290,215.200 153.600 C 217.730 155.910,220.071 158.070,220.401 158.400 C 220.732 158.730,221.992 159.886,223.201 160.968 C 224.411 162.051,226.570 164.032,228.000 165.372 C 229.430 166.711,232.670 169.696,235.200 172.004 C 237.730 174.312,240.070 176.470,240.401 176.800 C 240.732 177.130,242.892 179.110,245.201 181.199 C 247.510 183.289,250.165 185.750,251.100 186.668 C 252.035 187.586,252.800 188.189,252.800 188.009 C 252.800 187.828,251.773 186.742,250.519 185.595 C 244.803 180.371,238.377 174.458,235.999 172.233 C 234.569 170.895,231.329 167.911,228.799 165.603 C 221.308 158.767,219.959 157.530,217.010 154.790 C 215.464 153.354,211.950 150.115,209.200 147.592 C 206.450 145.069,203.300 142.163,202.200 141.135 C 197.731 136.957,198.037 137.022,195.200 139.635 M183.192 139.313 C 182.638 139.801,181.665 140.608,181.031 141.106 C 180.397 141.604,179.955 142.089,180.050 142.183 C 180.145 142.278,181.207 141.473,182.411 140.395 C 183.615 139.317,184.510 138.433,184.400 138.430 C 184.290 138.427,183.746 138.825,183.192 139.313 M190.389 143.660 L 188.200 145.677 190.400 143.958 C 191.610 143.012,192.675 142.185,192.767 142.119 C 192.858 142.054,192.853 141.920,192.755 141.822 C 192.658 141.724,191.593 142.552,190.389 143.660 M178.392 143.313 C 177.838 143.801,176.865 144.608,176.231 145.106 C 175.597 145.604,175.155 146.089,175.250 146.183 C 175.345 146.278,176.407 145.473,177.611 144.395 C 178.815 143.317,179.710 142.433,179.600 142.430 C 179.490 142.427,178.946 142.825,178.392 143.313 M175.955 155.544 C 169.440 160.965,160.530 168.365,156.155 171.988 C 151.780 175.612,147.975 178.794,147.700 179.060 C 147.304 179.442,147.200 192.433,147.200 241.371 L 147.200 303.200 200.000 303.200 C 229.040 303.200,252.800 303.065,252.800 302.900 C 252.800 302.735,229.129 302.646,200.199 302.703 L 147.597 302.806 147.699 241.116 L 147.800 179.426 155.400 173.100 C 159.580 169.621,163.270 166.555,163.600 166.286 C 166.154 164.207,168.666 162.121,169.100 161.719 C 169.386 161.454,170.470 160.554,171.510 159.719 C 172.549 158.883,173.490 158.108,173.600 157.995 C 173.710 157.881,174.790 156.984,176.000 156.000 C 177.210 155.016,178.290 154.116,178.400 154.000 C 178.510 153.884,179.590 152.984,180.800 152.000 C 182.010 151.016,183.090 150.116,183.200 150.000 C 183.376 149.814,187.535 146.428,187.967 146.119 C 188.058 146.054,188.058 145.930,187.967 145.844 C 187.875 145.758,182.470 150.123,175.955 155.544 M131.600 192.421 C 127.090 196.172,123.040 199.624,122.600 200.091 C 121.605 201.148,124.437 198.873,132.232 192.353 C 135.551 189.577,138.746 186.992,139.332 186.608 L 140.397 185.910 140.499 247.855 L 140.600 309.800 200.200 309.800 L 259.800 309.800 259.901 252.500 C 259.957 220.985,260.114 195.200,260.249 195.200 C 260.454 195.200,264.911 199.227,270.544 204.500 C 271.190 205.105,271.904 205.600,272.131 205.600 C 272.358 205.600,271.747 204.930,270.772 204.111 C 269.797 203.291,267.830 201.525,266.400 200.186 C 261.302 195.412,260.594 194.807,260.101 194.803 C 259.706 194.801,259.582 206.662,259.501 252.100 L 259.400 309.400 200.200 309.400 L 141.000 309.400 140.899 247.500 C 140.818 198.384,140.694 185.600,140.299 185.600 C 140.024 185.600,136.110 188.669,131.600 192.421 M114.901 198.200 C 114.905 199.080,114.987 199.393,115.083 198.895 C 115.179 198.398,115.175 197.678,115.075 197.295 C 114.975 196.913,114.896 197.320,114.901 198.200 M115.200 200.183 C 115.200 201.401,118.337 202.732,119.725 202.103 C 120.463 201.769,120.337 201.713,118.924 201.746 C 117.670 201.775,116.991 201.543,116.224 200.823 C 115.661 200.294,115.200 200.006,115.200 200.183 M276.470 204.453 C 275.775 205.309,275.166 205.614,274.070 205.654 C 273.062 205.692,272.896 205.765,273.541 205.888 C 275.015 206.168,276.331 205.677,277.049 204.581 C 277.977 203.165,277.585 203.078,276.470 204.453 " stroke="none" fill="#7c7c7c" fill-rule="evenodd"></path><path id="path3" d="M140.662 89.900 C 140.494 90.171,181.299 90.170,238.000 89.896 C 249.770 89.839,232.726 89.749,200.124 89.696 C 167.522 89.643,140.764 89.735,140.662 89.900 M252.200 136.638 C 252.200 158.507,252.335 176.400,252.500 176.400 C 252.892 176.400,252.892 97.304,252.500 97.062 C 252.335 96.960,252.200 114.769,252.200 136.638 M205.600 133.725 C 205.600 133.794,206.185 134.379,206.900 135.025 L 208.200 136.200 207.025 134.900 C 205.930 133.688,205.600 133.416,205.600 133.725 M215.200 142.525 C 215.200 142.594,215.785 143.179,216.500 143.825 L 217.800 145.000 216.625 143.700 C 215.530 142.488,215.200 142.216,215.200 142.525 M210.800 149.725 C 210.800 149.794,211.385 150.379,212.100 151.025 L 213.400 152.200 212.225 150.900 C 211.130 149.688,210.800 149.416,210.800 149.725 M224.800 151.325 C 224.800 151.394,225.385 151.979,226.100 152.625 L 227.400 153.800 226.225 152.500 C 225.130 151.288,224.800 151.016,224.800 151.325 M215.200 153.725 C 215.200 153.794,215.785 154.379,216.500 155.025 L 217.800 156.200 216.625 154.900 C 215.530 153.688,215.200 153.416,215.200 153.725 M234.400 160.125 C 234.400 160.194,234.985 160.779,235.700 161.425 L 237.000 162.600 235.825 161.300 C 234.730 160.088,234.400 159.816,234.400 160.125 M224.800 162.525 C 224.800 162.594,225.385 163.179,226.100 163.825 L 227.400 165.000 226.225 163.700 C 225.130 162.488,224.800 162.216,224.800 162.525 M244.000 168.925 C 244.000 168.994,244.585 169.579,245.300 170.225 L 246.600 171.400 245.425 170.100 C 244.330 168.888,244.000 168.616,244.000 168.925 M235.200 172.125 C 235.200 172.194,235.785 172.779,236.500 173.425 L 237.800 174.600 236.625 173.300 C 235.530 172.088,235.200 171.816,235.200 172.125 M244.800 180.925 C 244.800 180.994,245.385 181.579,246.100 182.225 L 247.400 183.400 246.225 182.100 C 245.130 180.888,244.800 180.616,244.800 180.925 M263.200 186.525 C 263.200 186.594,263.785 187.179,264.500 187.825 L 265.800 189.000 264.625 187.700 C 263.530 186.488,263.200 186.216,263.200 186.525 M252.595 245.400 C 252.595 276.860,252.642 289.789,252.700 274.131 C 252.758 258.474,252.758 232.734,252.700 216.931 C 252.642 201.129,252.595 213.940,252.595 245.400 M272.800 195.325 C 272.800 195.394,273.385 195.979,274.100 196.625 L 275.400 197.800 274.225 196.500 C 273.130 195.288,272.800 195.016,272.800 195.325 M264.800 199.325 C 264.800 199.394,265.385 199.979,266.100 200.625 L 267.400 201.800 266.225 200.500 C 265.130 199.288,264.800 199.016,264.800 199.325 M140.741 310.101 C 140.907 310.267,167.673 310.357,200.221 310.301 L 259.400 310.200 199.920 310.000 C 167.206 309.890,140.576 309.936,140.741 310.101 " stroke="none" fill="#a8a8a8" fill-rule="evenodd"></path><path id="path4" d="M140.184 90.100 C 140.080 90.375,140.040 109.500,140.097 132.600 L 140.200 174.600 140.400 132.100 C 140.510 108.725,140.549 89.600,140.487 89.600 C 140.426 89.600,140.289 89.825,140.184 90.100 M260.098 136.819 L 260.000 183.438 261.700 185.019 L 263.400 186.600 261.902 184.985 L 260.403 183.370 260.300 136.785 L 260.197 90.200 260.098 136.819 M174.069 97.100 C 188.297 97.158,211.697 97.158,226.069 97.100 C 240.441 97.042,228.800 96.994,200.200 96.994 C 171.600 96.994,159.841 97.042,174.069 97.100 M147.698 132.500 C 147.595 169.776,147.582 169.480,149.232 167.300 C 149.682 166.704,149.678 166.675,149.201 167.100 C 148.892 167.375,148.497 167.600,148.322 167.600 C 148.147 167.600,147.957 151.715,147.900 132.300 L 147.796 97.000 147.698 132.500 M192.400 131.234 L 190.600 132.865 192.500 131.384 C 194.166 130.086,194.659 129.597,194.300 129.601 C 194.245 129.602,193.390 130.336,192.400 131.234 M203.583 131.700 C 204.564 132.745,205.419 133.600,205.483 133.600 C 205.784 133.600,205.466 133.241,203.700 131.583 L 201.800 129.800 203.583 131.700 M187.800 135.049 L 185.800 136.881 187.900 135.203 C 189.718 133.751,190.295 133.176,189.900 133.208 C 189.845 133.213,188.900 134.041,187.800 135.049 M207.600 135.400 C 208.346 136.170,209.047 136.800,209.157 136.800 C 209.267 136.800,208.746 136.170,208.000 135.400 C 207.254 134.630,206.553 134.000,206.443 134.000 C 206.333 134.000,206.854 134.630,207.600 135.400 M183.000 139.049 L 181.000 140.881 183.100 139.203 C 184.918 137.751,185.495 137.176,185.100 137.208 C 185.045 137.213,184.100 138.041,183.000 139.049 M199.983 140.100 C 200.964 141.145,201.819 142.000,201.883 142.000 C 202.184 142.000,201.866 141.641,200.100 139.983 L 198.200 138.200 199.983 140.100 M213.000 140.400 C 214.083 141.500,215.060 142.400,215.170 142.400 C 215.280 142.400,214.483 141.500,213.400 140.400 C 212.317 139.300,211.340 138.400,211.230 138.400 C 211.120 138.400,211.917 139.300,213.000 140.400 M194.200 141.049 L 192.200 142.881 194.300 141.203 C 196.118 139.751,196.695 139.176,196.300 139.208 C 196.245 139.213,195.300 140.041,194.200 141.049 M178.200 143.049 L 176.200 144.881 178.300 143.203 C 180.118 141.751,180.695 141.176,180.300 141.208 C 180.245 141.213,179.300 142.041,178.200 143.049 M217.200 144.200 C 217.946 144.970,218.647 145.600,218.757 145.600 C 218.867 145.600,218.346 144.970,217.600 144.200 C 216.854 143.430,216.153 142.800,216.043 142.800 C 215.933 142.800,216.454 143.430,217.200 144.200 M189.400 145.049 L 187.400 146.881 189.500 145.203 C 191.318 143.751,191.895 143.176,191.500 143.208 C 191.445 143.213,190.500 144.041,189.400 145.049 M203.600 143.301 C 203.600 143.405,205.445 145.179,207.700 147.244 C 209.955 149.309,211.551 150.681,211.246 150.293 C 210.543 149.399,203.600 143.049,203.600 143.301 M173.400 147.049 L 171.400 148.881 173.500 147.203 C 175.318 145.751,175.895 145.176,175.500 145.208 C 175.445 145.213,174.500 146.041,173.400 147.049 M184.600 149.049 L 182.600 150.881 184.700 149.203 C 186.518 147.751,187.095 147.176,186.700 147.208 C 186.645 147.213,185.700 148.041,184.600 149.049 M222.600 149.200 C 223.683 150.300,224.660 151.200,224.770 151.200 C 224.880 151.200,224.083 150.300,223.000 149.200 C 221.917 148.100,220.940 147.200,220.830 147.200 C 220.720 147.200,221.517 148.100,222.600 149.200 M168.800 150.857 L 166.600 152.889 168.699 151.208 C 170.539 149.734,171.513 148.773,171.124 148.813 C 171.056 148.820,170.010 149.740,168.800 150.857 M226.800 153.000 C 227.546 153.770,228.247 154.400,228.357 154.400 C 228.467 154.400,227.946 153.770,227.200 153.000 C 226.454 152.230,225.753 151.600,225.643 151.600 C 225.533 151.600,226.054 152.230,226.800 153.000 M214.783 153.700 C 215.764 154.745,216.619 155.600,216.683 155.600 C 216.984 155.600,216.666 155.241,214.900 153.583 L 213.000 151.800 214.783 153.700 M232.000 157.800 C 233.195 159.010,234.263 160.000,234.373 160.000 C 234.483 160.000,233.595 159.010,232.400 157.800 C 231.205 156.590,230.137 155.600,230.027 155.600 C 229.917 155.600,230.805 156.590,232.000 157.800 M219.400 158.000 C 220.483 159.100,221.460 160.000,221.570 160.000 C 221.680 160.000,220.883 159.100,219.800 158.000 C 218.717 156.900,217.740 156.000,217.630 156.000 C 217.520 156.000,218.317 156.900,219.400 158.000 M236.400 161.800 C 237.146 162.570,237.847 163.200,237.957 163.200 C 238.067 163.200,237.546 162.570,236.800 161.800 C 236.054 161.030,235.353 160.400,235.243 160.400 C 235.133 160.400,235.654 161.030,236.400 161.800 M224.800 163.000 C 225.546 163.770,226.247 164.400,226.357 164.400 C 226.467 164.400,225.946 163.770,225.200 163.000 C 224.454 162.230,223.753 161.600,223.643 161.600 C 223.533 161.600,224.054 162.230,224.800 163.000 M152.000 164.840 L 149.800 166.870 152.100 164.987 C 154.119 163.333,154.668 162.788,154.300 162.804 C 154.245 162.807,153.210 163.723,152.000 164.840 M241.600 166.600 C 242.795 167.810,243.863 168.800,243.973 168.800 C 244.083 168.800,243.195 167.810,242.000 166.600 C 240.805 165.390,239.737 164.400,239.627 164.400 C 239.517 164.400,240.405 165.390,241.600 166.600 M229.200 167.000 C 230.395 168.210,231.463 169.200,231.573 169.200 C 231.683 169.200,230.795 168.210,229.600 167.000 C 228.405 165.790,227.337 164.800,227.227 164.800 C 227.117 164.800,228.005 165.790,229.200 167.000 M246.000 170.600 C 246.746 171.370,247.447 172.000,247.557 172.000 C 247.667 172.000,247.146 171.370,246.400 170.600 C 245.654 169.830,244.953 169.200,244.843 169.200 C 244.733 169.200,245.254 169.830,246.000 170.600 M234.783 172.100 C 235.764 173.145,236.619 174.000,236.683 174.000 C 236.984 174.000,236.666 173.641,234.900 171.983 L 233.000 170.200 234.783 172.100 M250.487 174.605 C 251.304 175.460,252.038 176.079,252.117 175.980 C 252.197 175.881,251.528 175.181,250.631 174.425 L 249.000 173.050 250.487 174.605 M239.400 176.400 C 240.483 177.500,241.460 178.400,241.570 178.400 C 241.680 178.400,240.883 177.500,239.800 176.400 C 238.717 175.300,237.740 174.400,237.630 174.400 C 237.520 174.400,238.317 175.300,239.400 176.400 M149.600 178.068 C 148.552 179.020,148.301 179.365,149.000 178.895 C 150.104 178.151,151.938 176.377,151.562 176.417 C 151.473 176.426,150.590 177.170,149.600 178.068 M244.383 180.900 C 245.364 181.945,246.219 182.800,246.283 182.800 C 246.584 182.800,246.266 182.441,244.500 180.783 L 242.600 179.000 244.383 180.900 M147.798 241.200 L 147.800 302.600 200.200 302.602 L 252.600 302.604 200.301 302.501 L 148.003 302.397 147.899 241.099 L 147.796 179.800 147.798 241.200 M249.200 185.400 C 250.395 186.610,251.463 187.600,251.573 187.600 C 251.683 187.600,250.795 186.610,249.600 185.400 C 248.405 184.190,247.337 183.200,247.227 183.200 C 247.117 183.200,248.005 184.190,249.200 185.400 M138.370 187.500 L 137.400 188.600 138.426 187.700 C 138.990 187.205,139.575 186.800,139.726 186.800 C 139.877 186.800,140.000 214.509,140.000 248.376 C 140.000 282.243,140.135 310.036,140.300 310.138 C 140.465 310.240,140.554 282.441,140.497 248.362 C 140.387 181.618,140.508 185.075,138.370 187.500 M265.200 188.200 C 265.946 188.970,266.647 189.600,266.757 189.600 C 266.867 189.600,266.346 188.970,265.600 188.200 C 264.854 187.430,264.153 186.800,264.043 186.800 C 263.933 186.800,264.454 187.430,265.200 188.200 M132.400 192.440 L 130.200 194.470 132.500 192.587 C 134.519 190.933,135.068 190.388,134.700 190.404 C 134.645 190.407,133.610 191.323,132.400 192.440 M270.400 193.000 C 271.595 194.210,272.663 195.200,272.773 195.200 C 272.883 195.200,271.995 194.210,270.800 193.000 C 269.605 191.790,268.537 190.800,268.427 190.800 C 268.317 190.800,269.205 191.790,270.400 193.000 M116.800 194.054 L 115.000 195.685 116.694 194.413 C 118.168 193.307,119.114 192.374,118.724 192.412 C 118.656 192.419,117.790 193.158,116.800 194.054 M260.099 252.700 L 260.197 309.800 260.300 252.877 C 260.377 210.072,260.517 196.025,260.863 196.239 C 261.148 196.415,261.215 196.347,261.038 196.062 C 260.881 195.808,260.583 195.600,260.376 195.600 C 260.142 195.600,260.037 217.218,260.099 252.700 M274.800 197.000 C 275.546 197.770,276.247 198.400,276.357 198.400 C 276.467 198.400,275.946 197.770,275.200 197.000 C 274.454 196.230,273.753 195.600,273.643 195.600 C 273.533 195.600,274.054 196.230,274.800 197.000 M264.383 199.300 C 265.364 200.345,266.219 201.200,266.283 201.200 C 266.584 201.200,266.266 200.841,264.500 199.183 L 262.600 197.400 264.383 199.300 M123.600 199.659 C 122.830 200.333,121.660 201.225,121.000 201.641 C 120.340 202.057,120.008 202.398,120.263 202.399 C 120.716 202.400,125.200 198.930,125.200 198.578 C 125.200 198.285,125.061 198.379,123.600 199.659 M114.412 199.411 C 114.392 200.087,115.579 201.563,116.521 202.032 C 117.252 202.397,117.223 202.314,116.343 201.536 C 115.761 201.021,115.092 200.240,114.855 199.800 C 114.618 199.360,114.419 199.185,114.412 199.411 M268.783 203.300 C 270.441 205.066,270.800 205.384,270.800 205.083 C 270.800 205.019,269.945 204.164,268.900 203.183 L 267.000 201.400 268.783 203.300 M276.834 204.953 L 275.869 206.200 277.013 205.112 C 277.643 204.514,278.077 203.953,277.979 203.865 C 277.880 203.777,277.365 204.267,276.834 204.953 " stroke="none" fill="#bcbcbc" fill-rule="evenodd"></path></g></svg>